HIERARCHY
ROOT Hips
{
    OFFSET 0.000000 0.000000 0.000000
    CHANNELS 6 Xposition Yposition Zposition Zrotation Xrotation Yrotation
    JOINT Spine
    {
        OFFSET -0.000000 0.074571 0.000000
        CHANNELS 3 Zrotation Xrotation Yrotation
        JOINT Spine1
        {
            OFFSET -0.000000 0.214059 0.000000
            CHANNELS 3 Zrotation Xrotation Yrotation
            JOINT Neck
            {
                OFFSET -0.000000 0.232247 0.000000
                CHANNELS 3 Zrotation Xrotation Yrotation
                JOINT Head
                {
                    OFFSET -0.000000 0.140958 0.018188
                    CHANNELS 3 Zrotation Xrotation Yrotation
                    End Site
                    {
                        OFFSET -0.000000 0.181881 0.000000
                    }
                }
            }
            JOINT LeftShoulder
            {
                OFFSET 0.036682 0.194670 -0.002663
                CHANNELS 3 Zrotation Xrotation Yrotation
                JOINT LeftArm
                {
                    OFFSET 0.114069 0.000000 0.000000
                    CHANNELS 3 Zrotation Xrotation Yrotation
                    JOINT LeftForeArm
                    {
                        OFFSET 0.274980 0.000000 0.000000
                        CHANNELS 3 Zrotation Xrotation Yrotation
                        JOINT LeftHand
                        {
                            OFFSET 0.229518 0.000000 0.000000
                            CHANNELS 3 Zrotation Xrotation Yrotation
                            End Site
                            {
                                OFFSET 0.136411 0.000000 0.000000
                            }
                        }
                    }
                }
            }
            JOINT RightShoulder
            {
                OFFSET -0.036012 0.194670 -0.002663
                CHANNELS 3 Zrotation Xrotation Yrotation
                JOINT RightArm
                {
                    OFFSET -0.114069 0.000000 0.000000
                    CHANNELS 3 Zrotation Xrotation Yrotation
                    JOINT RightForeArm
                    {
                        OFFSET -0.274980 0.000000 0.000000
                        CHANNELS 3 Zrotation Xrotation Yrotation
                        JOINT RightHand
                        {
                            OFFSET -0.229518 0.000000 0.000000
                            CHANNELS 3 Zrotation Xrotation Yrotation
                            End Site
                            {
                                OFFSET -0.136411 0.000000 0.000000
                            }
                        }
                    }
                }
            }
        }
    }
    JOINT LeftUpLeg
    {
        OFFSET 0.090941 0.000000 0.000000
        CHANNELS 3 Zrotation Xrotation Yrotation
        JOINT LeftLeg
        {
            OFFSET -0.000000 -0.449808 0.000000
            CHANNELS 3 Zrotation Xrotation Yrotation
            JOINT LeftFoot
            {
                OFFSET -0.000000 -0.372940 0.000000
                CHANNELS 3 Zrotation Xrotation Yrotation
                JOINT LeftToeBase
                {
                    OFFSET -0.000000 -0.059111 0.136411
                    CHANNELS 3 Zrotation Xrotation Yrotation
                    End Site
                    {
                        OFFSET -0.000000 0.000000 0.036376
                    }
                }
            }
        }
    }
    JOINT RightUpLeg
    {
        OFFSET -0.090941 0.000000 0.000000
        CHANNELS 3 Zrotation Xrotation Yrotation
        JOINT RightLeg
        {
            OFFSET -0.000000 -0.449808 0.000000
            CHANNELS 3 Zrotation Xrotation Yrotation
            JOINT RightFoot
            {
                OFFSET -0.000000 -0.372940 0.000000
                CHANNELS 3 Zrotation Xrotation Yrotation
                JOINT RightToeBase
                {
                    OFFSET -0.000000 -0.059111 0.136411
                    CHANNELS 3 Zrotation Xrotation Yrotation
                    End Site
                    {
                        OFFSET -0.000000 0.000000 0.036376
                    }
                }
            }
        }
    }
}
MOTION
Frames:    13
Frame Time:    0.010000
0.411698    0.851588    0.161587    0.230226    -6.999948    -142.021927    -0.950257    -3.664483    -0.638257    6.162886    -0.292809    -0.188479    -5.231820    -7.828177    14.137929    -4.575346    -1.381918    14.792690    -1.873828    -16.227564    -13.023545    -56.324989    34.171780    -5.910581    28.347961    -41.274178    -110.719582    16.612690    -4.061588    -17.591047    -5.080373    -7.193574    3.184052    65.614189    57.416786    10.825237    -38.921139    -45.434303    102.090004    -23.746471    -0.828861    16.095949    14.154596    -24.914253    3.316842    -19.739227    33.460926    -2.011888    -7.037169    -23.776560    31.848877    0.000000    0.000000    0.000000    -9.625554    -3.368443    -15.149598    -7.374053    27.993288    -1.219314    23.071310    -22.197634    11.573030    0.000000    0.000000    0.000000    
0.408430    0.850943    0.162272    0.230664    -7.079453    -141.931839    -0.728294    -4.169164    -1.346161    5.963751    0.519015    -0.468540    -5.652687    -7.987263    14.595423    -4.260820    -1.791837    15.194918    -1.738103    -16.164103    -12.598455    -55.797184    34.051067    -5.982810    29.255058    -42.006676    -109.316177    16.587046    -4.684858    -17.450403    -4.836059    -7.140938    4.371243    64.998558    56.433105    11.558859    -38.327206    -44.938992    102.672974    -23.712688    -0.473997    15.964354    13.769929    -24.803423    2.633554    -19.991774    33.205292    -2.170720    -5.845609    -24.253971    32.465099    0.000000    0.000000    0.000000    -9.775581    -3.357577    -15.166590    -7.541802    28.093229    -1.448240    23.718697    -22.028322    11.628798    0.000000    0.000000    0.000000    
0.404805    0.849946    0.162822    0.177921    -7.076747    -141.782883    -0.651494    -4.029187    -1.632421    5.877012    0.299927    -0.553437    -5.756483    -8.000389    14.840822    -3.998632    -1.575536    15.420573    -1.772530    -15.903753    -12.509367    -55.519684    34.033661    -6.032514    29.678965    -42.166054    -108.391533    16.658045    -4.993601    -17.359671    -4.630381    -6.942852    4.697179    64.870064    55.646027    11.541207    -37.413620    -44.212639    103.635567    -23.879997    -0.018650    16.002798    13.384267    -24.651743    2.082227    -20.374355    33.026352    -2.385742    -4.943395    -24.714926    33.171772    0.000000    0.000000    0.000000    -9.940549    -3.276158    -15.271316    -7.713934    28.384592    -0.452672    23.501867    -22.645960    10.400208    0.000000    0.000000    0.000000    
0.401187    0.848544    0.163598    0.172908    -7.196049    -141.615723    -0.692339    -4.014703    -1.808988    5.860803    0.151145    -0.604216    -5.754267    -7.918804    14.927073    -4.206572    -1.725002    15.523097    -1.884476    -15.661507    -12.417534    -55.137032    33.981857    -6.286851    29.938179    -42.181683    -107.662048    16.540503    -5.187710    -17.252506    -4.552324    -6.793223    4.777187    64.779404    55.512684    11.627984    -37.240967    -44.170795    103.824730    -23.828211    -0.032849    15.933316    12.950068    -24.627686    1.738874    -20.689507    32.962269    -2.225897    -3.921532    -24.900719    33.517982    0.000000    0.000000    0.000000    -10.097113    -3.361587    -15.132354    -7.908324    28.764603    -0.239334    23.595373    -23.170963    9.775298    0.000000    0.000000    0.000000    
0.397502    0.846672    0.164225    0.138501    -7.213831    -141.353226    -0.827149    -3.978398    -1.838117    5.890803    0.251090    -0.617666    -5.474053    -8.203121    14.894737    -4.434772    -1.574052    15.552161    -1.751539    -15.912901    -12.475881    -55.347176    34.005146    -6.301194    29.616089    -42.019421    -107.541656    16.036083    -5.530848    -17.201769    -4.900399    -7.382143    4.491015    66.066139    55.955338    10.584973    -37.593990    -44.449390    103.427559    -23.780325    -0.255490    16.037466    12.545851    -24.627485    1.668481    -20.860306    33.123943    -2.517831    -3.667825    -25.021563    33.985603    0.000000    0.000000    0.000000    -10.184937    -3.310479    -14.835891    -8.036853    29.183922    -0.468881    23.762617    -23.826553    9.392907    0.000000    0.000000    0.000000    
0.393907    0.844219    0.164860    0.152171    -7.244069    -141.015503    -0.961234    -3.972059    -1.907645    5.994688    0.272346    -0.640690    -5.446992    -8.362431    14.887124    -4.281311    -1.476729    15.540240    -1.779588    -16.097387    -12.660606    -55.567623    34.030533    -6.176069    29.832870    -41.975937    -106.999634    15.904733    -5.554663    -17.163832    -5.015631    -7.294822    4.370443    66.173462    55.905842    10.554999    -37.636208    -44.554173    103.447639    -23.905523    -0.323860    16.030365    12.207593    -24.723272    1.962190    -21.074492    33.444302    -2.703343    -4.386702    -25.228622    34.210285    0.000000    0.000000    0.000000    -10.218111    -3.342274    -14.783897    -8.459680    29.740631    0.413202    23.767685    -24.825100    8.427165    0.000000    0.000000    0.000000    
0.390268    0.841288    0.165480    0.167628    -7.251749    -140.617844    -0.936594    -3.873705    -2.115325    5.870360    0.085823    -0.700609    -5.369112    -8.290769    14.904647    -4.472319    -1.491227    15.580224    -1.926482    -15.840047    -12.579055    -55.323914    34.207951    -6.368122    30.255976    -42.177330    -106.266663    15.640025    -5.717566    -17.159264    -4.887648    -7.037833    4.575823    66.206635    55.474419    10.491638    -37.248734    -44.277588    103.852921    -24.016634    -0.193646    16.064877    11.737680    -24.863825    2.649250    -20.601721    34.129398    -2.887401    -4.270541    -24.976448    33.580467    0.000000    0.000000    0.000000    -10.265143    -3.368619    -14.840653    -9.036615    30.406010    1.857830    23.501326    -26.043869    7.400245    0.000000    0.000000    0.000000    
0.386339    0.837845    0.165922    0.141770    -7.168637    -140.171707    -0.994301    -3.797293    -2.163235    5.806629    0.185584    -0.721104    -5.180237    -8.501815    14.807913    -4.532100    -1.433358    15.510578    -1.962461    -15.828946    -12.685411    -55.334930    34.201584    -6.519608    30.244398    -42.090816    -106.128456    15.437874    -5.714731    -17.207691    -4.813262    -6.678228    4.449433    65.841728    55.225178    10.829074    -37.197842    -44.275211    103.993286    -24.160803    -0.157762    16.109749    11.315046    -24.833336    3.433961    -20.438353    34.634251    -3.010228    -4.852858    -25.023714    33.058376    0.000000    0.000000    0.000000    -10.323833    -3.176355    -14.750496    -9.026815    31.005663    3.711946    22.352180    -28.130110    4.669631    0.000000    0.000000    0.000000    
0.382587    0.833854    0.166470    0.204619    -7.100536    -139.672516    -1.294088    -3.864994    -2.052732    6.142299    0.626784    -0.704847    -4.934834    -9.109889    14.669161    -4.600663    -1.404452    15.417770    -1.845170    -16.398386    -12.881494    -55.976059    34.255146    -6.472668    30.069197    -41.834606    -106.285126    15.189047    -5.487783    -17.223179    -5.124821    -7.363596    3.866787    66.666008    55.772659    10.034635    -37.610390    -44.773651    103.674202    -24.151361    -0.475636    16.075703    10.902678    -25.053259    4.537757    -19.745985    35.695515    -3.750586    -4.109302    -24.345095    32.308552    0.000000    0.000000    0.000000    -10.289050    -3.118313    -14.933952    -9.641760    31.620653    1.037249    24.366825    -27.946875    8.059071    0.000000    0.000000    0.000000    
0.378396    0.829604    0.166862    0.233648    -6.970996    -139.158066    -1.053661    -3.631166    -2.388715    5.854260    0.181446    -0.795999    -4.784012    -9.016404    15.003654    -4.849367    -0.697048    15.823082    -2.296433    -15.808218    -12.839913    -55.642288    34.481182    -6.340560    30.651009    -42.345623    -105.752937    15.142518    -5.703310    -17.439976    -4.482973    -6.814430    4.393919    65.966515    55.187214    10.264206    -36.875141    -44.256702    104.389061    -24.361429    -0.271665    15.998544    10.440258    -25.198957    5.289626    -19.257055    36.577908    -4.320446    -0.023908    -22.717176    32.505997    0.000000    0.000000    0.000000    -10.283514    -2.985305    -14.906094    -10.166640    32.362492    -0.759918    26.013329    -28.132982    10.453812    0.000000    0.000000    0.000000    
0.374327    0.824872    0.167265    0.339946    -6.839343    -138.599594    -1.042540    -3.607907    -2.481310    5.826576    0.211089    -0.828403    -4.835598    -8.663706    14.783152    -4.702026    -1.751570    15.518205    -2.399453    -15.718138    -12.968951    -56.020092    34.608692    -6.161882    30.792448    -42.563805    -105.800842    14.795101    -5.701447    -17.663467    -4.362549    -7.091868    4.437196    66.399162    55.237595    9.603025    -37.480381    -44.141979    103.844826    -25.042879    0.200527    16.239031    10.027860    -25.448652    6.105012    -18.551931    37.601929    -4.830202    4.485928    -22.238693    32.083725    0.000000    0.000000    0.000000    -10.308283    -3.020511    -14.948091    -10.558962    33.437580    -0.885465    26.771908    -29.042595    11.051329    0.000000    0.000000    0.000000    
0.370119    0.819917    0.167636    0.483647    -6.704087    -138.028412    -1.318512    -3.742647    -2.247614    6.202713    0.762001    -0.777603    -4.663726    -9.392042    14.498792    -4.806808    -1.787849    15.275866    -2.100197    -16.850550    -13.111540    -57.570763    34.903549    -5.477477    30.332626    -42.096542    -106.555397    14.960546    -5.233858    -17.934410    -4.975114    -7.954720    3.654388    67.527115    55.916393    8.663338    -37.837658    -44.585335    103.591293    -25.159075    -0.072528    16.160015    9.610310    -25.794188    6.718087    -17.749191    38.763954    -5.479931    4.880038    -24.559626    31.648527    0.000000    0.000000    0.000000    -10.360845    -3.030645    -15.169243    -10.976088    34.426865    -0.932573    27.630997    -29.940489    11.866964    0.000000    0.000000    0.000000    
0.365775    0.814835    0.167845    0.678818    -6.508203    -137.373611    -1.295133    -3.828976    -2.351478    6.323190    0.938444    -0.822714    -4.765461    -9.282988    14.200757    -4.696980    -2.497942    14.918757    -2.265786    -16.524221    -13.173121    -57.728626    34.785267    -5.537611    30.096298    -42.054775    -107.177498    15.228805    -5.074914    -17.971121    -4.594129    -7.343182    3.746037    66.124535    55.409729    9.767922    -37.254028    -44.538239    104.278351    -25.280121    -0.250813    15.980120    9.279943    -26.110859    7.159485    -16.958143    39.803905    -6.651845    7.046155    -25.819468    32.412800    0.000000    0.000000    0.000000    -10.371306    -3.042013    -15.220161    -11.244783    35.573780    -1.413967    28.789906    -30.538130    12.956729    0.000000    0.000000    0.000000    
